<?xml version="1.0" encoding="utf-8"?>
<!-- Generator: Adobe Illustrator 22.0.0, SVG Export Plug-In . SVG Version: 6.00 Build 0)  -->
<svg version="1.1" xmlns="http://www.w3.org/2000/svg" xmlns:xlink="http://www.w3.org/1999/xlink" x="0px" y="0px"
	 viewBox="0 0 1920 319.6" style="enable-background:new 0 0 1920 319.6;" xml:space="preserve">
<style type="text/css">
	.st0{fill:#07253D;}
	.st1{fill:#A804A0;}
	.st2{fill:#990292;}
	.st3{fill:#035C8E;}
	.st4{fill:#005893;}
	.st5{fill:#BC02AA;}
	.st6{fill:#0468BA;}
	.st7{opacity:0.47;}
	.st8{fill:#FFFFFF;}
	.st9{display:none;}
	.st10{display:inline;fill:#095589;}
</style>
<g id="Layer_2">
	<rect y="-0.4" class="st0" width="1920" height="320"/>
	<circle class="st0" cx="407.5" cy="137.1" r="9.5"/>
</g>
<g id="Layer_14">
	<path class="st1" d="M850,5.6c0,340.8-276.2,617-617,617s-617-276.2-617-617s264.2,451,605,451S850-335.1,850,5.6z"/>
	<path class="st2" d="M2383-36.1c0,225.2-182.5,407.7-407.7,407.7s-407.7-182.5-407.7-407.7s174.6,298,399.8,298
		S2383-261.3,2383-36.1z"/>
	<path class="st3" d="M346.6,209.5C201.5,209.5,83.9,91.9,83.9-53.2s117.6-262.7,262.7-262.7s-192,112.5-192,257.6
		S491.7,209.5,346.6,209.5z"/>
	<path class="st4" d="M1227,351.6c0-145.1,326.3-527.3,471.4-527.3S1961.1-58.1,1961.1,87s-112.5-192-257.6-192
		S1227,496.7,1227,351.6z"/>
	<path class="st5" d="M848-13.4c0,328.1-275.3,594-615,594s-615-265.9-615-594s263.4,434.2,603,434.2S848-341.4,848-13.4z"/>
	<path class="st6" d="M356.6,206.5C211.5,206.5,93.9,88.9,93.9-56.2s117.6-262.7,262.7-262.7s-192,112.5-192,257.6
		S501.7,206.5,356.6,206.5z"/>
	<path class="st6" d="M1248.3,339.4c-1.9-145.1,319.4-531.5,464.5-533.4S1977-79.9,1978.9,65.2c1.9,145.1-115-190.5-260.1-188.6
		S1250.2,484.5,1248.3,339.4z"/>
	<path class="st5" d="M2380-60.1c0,225.2-182.5,407.7-407.7,407.7s-407.7-182.5-407.7-407.7s174.6,298,399.8,298
		S2380-285.3,2380-60.1z"/>
	<g class="st7">
		<g>
			<path class="st8" d="M828.4,25.7c-2.3,20-6.3,39.8-11.8,59.2c-2.1,7.4,9.5,10.6,11.6,3.2c5.8-20.4,9.8-41.3,12.2-62.4
				C841.2,18,829.2,18.1,828.4,25.7L828.4,25.7z"/>
		</g>
	</g>
	<g class="st7">
		<g>
			<path class="st8" d="M345.8,171.9c3.2,2.8,5.1,5.1,7.1,8.8c1.5,2.8,5.5,3.8,8.2,2.2c2.9-1.7,3.7-5.4,2.2-8.2
				c-2.3-4.2-5.3-8.1-8.9-11.2c-2.4-2.1-6.1-2.4-8.5,0C343.6,165.6,343.3,169.7,345.8,171.9L345.8,171.9z"/>
		</g>
	</g>
	<g class="st7">
		<g>
			<path class="st8" d="M1273.9,263.6c-4,7.8-7.3,16-9.8,24.4c-2.2,7.4,9.4,10.6,11.6,3.2c2.2-7.4,5-14.6,8.6-21.5
				C1287.7,262.8,1277.4,256.7,1273.9,263.6L1273.9,263.6z"/>
		</g>
	</g>
	<g class="st7">
		<g>
			<path class="st8" d="M1581.8,20.6c1,12,4.3,23.4,10.1,34c3.7,6.8,14,0.7,10.4-6.1c-4.7-8.7-7.6-18.1-8.5-27.9
				C1593.1,13,1581.1,12.9,1581.8,20.6L1581.8,20.6z"/>
		</g>
	</g>
</g>
<g id="Layer_5">
	<g class="st7">
		<g>
			<path class="st8" d="M450.1,91.2c7.7,0,7.7-12,0-12C442.4,79.2,442.4,91.2,450.1,91.2L450.1,91.2z"/>
		</g>
	</g>
	<g class="st7">
		<g>
			<path class="st8" d="M67.6,124.2c7.7,0,7.7-12,0-12C59.9,112.2,59.9,124.2,67.6,124.2L67.6,124.2z"/>
		</g>
	</g>
	<g class="st7">
		<g>
			<path class="st8" d="M1842,113.7c7.7,0,7.7-12,0-12C1834.3,101.7,1834.3,113.7,1842,113.7L1842,113.7z"/>
		</g>
	</g>
	<g class="st7">
		<g>
			<path class="st8" d="M1554.1,277.2c7.7,0,7.7-12,0-12C1546.3,265.2,1546.3,277.2,1554.1,277.2L1554.1,277.2z"/>
		</g>
	</g>
	<g class="st7">
		<g>
			<path class="st8" d="M393.1,27.2c6.4,0,6.4-10,0-10C386.7,17.2,386.7,27.2,393.1,27.2L393.1,27.2z"/>
		</g>
	</g>
	<g class="st7">
		<g>
			<path class="st8" d="M123.1,198.2c6.4,0,6.4-10,0-10C116.7,188.2,116.7,198.2,123.1,198.2L123.1,198.2z"/>
		</g>
	</g>
	<g class="st7">
		<g>
			<path class="st8" d="M1498.6,172.7c6.4,0,6.4-10,0-10C1492.1,162.7,1492.1,172.7,1498.6,172.7L1498.6,172.7z"/>
		</g>
	</g>
	<g class="st7">
		<g>
			<path class="st8" d="M1021.6,204.2c6.4,0,6.4-10,0-10C1015.2,194.2,1015.1,204.2,1021.6,204.2L1021.6,204.2z"/>
		</g>
	</g>
	<g class="st7">
		<g>
			<path class="st8" d="M277.6,22.2c1.9,0,1.9-3,0-3C275.7,19.2,275.7,22.2,277.6,22.2L277.6,22.2z"/>
		</g>
	</g>
	<g class="st7">
		<g>
			<path class="st8" d="M447.1,125.7c1.9,0,1.9-3,0-3C445.2,122.7,445.2,125.7,447.1,125.7L447.1,125.7z"/>
		</g>
	</g>
	<g class="st7">
		<g>
			<path class="st8" d="M252.1,241.2c1.9,0,1.9-3,0-3C250.2,238.2,250.2,241.2,252.1,241.2L252.1,241.2z"/>
		</g>
	</g>
	<g class="st7">
		<g>
			<path class="st8" d="M81.1,271.2c1.9,0,1.9-3,0-3C79.2,268.2,79.2,271.2,81.1,271.2L81.1,271.2z"/>
		</g>
	</g>
	<g class="st7">
		<g>
			<path class="st8" d="M1092.1,112.2c1.9,0,1.9-3,0-3C1090.2,109.2,1090.2,112.2,1092.1,112.2L1092.1,112.2z"/>
		</g>
	</g>
	<g class="st7">
		<g>
			<path class="st8" d="M1018.6,283.2c1.9,0,1.9-3,0-3C1016.7,280.2,1016.7,283.2,1018.6,283.2L1018.6,283.2z"/>
		</g>
	</g>
	<g class="st7">
		<g>
			<path class="st8" d="M1350.1,14.7c1.9,0,1.9-3,0-3C1348.1,11.7,1348.1,14.7,1350.1,14.7L1350.1,14.7z"/>
		</g>
	</g>
	<g class="st7">
		<g>
			<path class="st8" d="M937.6,67.2c1.9,0,1.9-3,0-3C935.7,64.2,935.7,67.2,937.6,67.2L937.6,67.2z"/>
		</g>
	</g>
	<g class="st7">
		<g>
			<path class="st8" d="M603.1,71.7c1.9,0,1.9-3,0-3C601.2,68.7,601.2,71.7,603.1,71.7L603.1,71.7z"/>
		</g>
	</g>
	<g class="st7">
		<g>
			<path class="st8" d="M1806,79.2c1.9,0,1.9-3,0-3C1804.1,76.2,1804.1,79.2,1806,79.2L1806,79.2z"/>
		</g>
	</g>
	<g class="st7">
		<g>
			<path class="st8" d="M1444.6,254.7c1.9,0,1.9-3,0-3C1442.6,251.7,1442.6,254.7,1444.6,254.7L1444.6,254.7z"/>
		</g>
	</g>
	<g class="st7">
		<g>
			<path class="st8" d="M442.6,45.7c0,0,0-5,0-5C442.6,40.7,442.6,45.7,442.6,45.7L442.6,45.7z"/>
		</g>
	</g>
	<g class="st7">
		<g>
			<path class="st8" d="M490.6,63.7c0,0,0-5,0-5C490.6,58.7,490.6,63.7,490.6,63.7L490.6,63.7z"/>
		</g>
	</g>
	<g class="st7">
		<g>
			<path class="st8" d="M490.6,63.7c0,0,0-5,0-5C490.6,58.7,490.6,63.7,490.6,63.7L490.6,63.7z"/>
		</g>
	</g>
</g>
<g id="Layer_3" class="st9">
	<circle class="st10" cx="9.5" cy="231.1" r="43.5"/>
	<path class="st10" d="M1847,375.6c0,327-293,35-620,35s-408,289-408-38s109-52,436-52S1847,48.7,1847,375.6z"/>
</g>
<g id="Layer_4" class="st9">
</g>
</svg>
