<svg height="512pt" viewBox="0 0 512 512" width="512pt" xmlns="http://www.w3.org/2000/svg"><path d="m508.886719 88.449219-85.335938-85.335938c-2.003906-1.984375-4.714843-3.113281-7.550781-3.113281h-384c-17.644531 0-32 14.355469-32 32v448c0 17.644531 14.355469 32 32 32h448c17.644531 0 32-14.355469 32-32v-384c0-2.835938-1.128906-5.546875-3.113281-7.550781zm0 0" fill="#455a64"/><path d="m128 0v138.667969c0 17.640625 14.355469 32 32 32h192c17.644531 0 32-14.359375 32-32v-138.667969zm0 0" fill="#eceff1"/><path d="m394.667969 192h-277.335938c-29.417969 0-53.332031 23.9375-53.332031 53.332031v266.667969h384v-266.667969c0-29.394531-23.914062-53.332031-53.332031-53.332031zm0 0" fill="#eceff1"/><path d="m330.667969 42.667969h-42.667969c-5.886719 0-10.667969 4.777343-10.667969 10.664062v64c0 5.890625 4.78125 10.667969 10.667969 10.667969h42.667969c5.886719 0 10.664062-4.777344 10.664062-10.667969v-64c0-5.886719-4.777343-10.664062-10.664062-10.664062zm0 0" fill="#455a64"/><path d="m480 512h-448c-17.644531 0-32-14.355469-32-32v-448c0-17.644531 14.355469-32 32-32h384c2.835938 0 5.546875 1.128906 7.550781 3.113281l85.335938 85.335938c1.984375 2.003906 3.113281 4.714843 3.113281 7.550781v384c0 17.644531-14.355469 32-32 32zm-448-490.667969c-5.867188 0-10.667969 4.800781-10.667969 10.667969v448c0 5.867188 4.800781 10.667969 10.667969 10.667969h448c5.867188 0 10.667969-4.800781 10.667969-10.667969v-379.585938l-79.082031-79.082031zm0 0"/><path d="m352 170.667969h-192c-17.644531 0-32-14.359375-32-32v-128c0-5.890625 4.777344-10.667969 10.667969-10.667969h234.664062c5.890625 0 10.667969 4.777344 10.667969 10.667969v128c0 17.640625-14.355469 32-32 32zm-202.667969-149.335938v117.335938c0 5.867187 4.800781 10.664062 10.667969 10.664062h192c5.867188 0 10.667969-4.796875 10.667969-10.664062v-117.335938zm0 0"/><path d="m437.332031 512h-362.664062c-5.890625 0-10.667969-4.777344-10.667969-10.667969v-256c0-29.417969 23.914062-53.332031 53.332031-53.332031h277.335938c29.417969 0 53.332031 23.914062 53.332031 53.332031v256c0 5.890625-4.777344 10.667969-10.667969 10.667969zm-352-21.332031h341.335938v-245.335938c0-17.640625-14.359375-32-32-32h-277.335938c-17.640625 0-32 14.359375-32 32zm0 0"/><path d="m330.667969 128h-42.667969c-5.886719 0-10.667969-4.777344-10.667969-10.667969v-64c0-5.886719 4.78125-10.664062 10.667969-10.664062h42.667969c5.886719 0 10.664062 4.777343 10.664062 10.664062v64c0 5.890625-4.777343 10.667969-10.664062 10.667969zm-32-21.332031h21.332031v-42.667969h-21.332031zm0 0"/><path d="m373.332031 298.667969h-234.664062c-5.890625 0-10.667969-4.78125-10.667969-10.667969s4.777344-10.667969 10.667969-10.667969h234.664062c5.890625 0 10.667969 4.78125 10.667969 10.667969s-4.777344 10.667969-10.667969 10.667969zm0 0"/><path d="m373.332031 362.667969h-234.664062c-5.890625 0-10.667969-4.78125-10.667969-10.667969s4.777344-10.667969 10.667969-10.667969h234.664062c5.890625 0 10.667969 4.78125 10.667969 10.667969s-4.777344 10.667969-10.667969 10.667969zm0 0"/><path d="m373.332031 426.667969h-234.664062c-5.890625 0-10.667969-4.78125-10.667969-10.667969s4.777344-10.667969 10.667969-10.667969h234.664062c5.890625 0 10.667969 4.78125 10.667969 10.667969s-4.777344 10.667969-10.667969 10.667969zm0 0"/></svg>